<?xml version="1.0" standalone="no"?><!DOCTYPE svg PUBLIC "-//W3C//DTD SVG 1.1//EN" "http://www.w3.org/Graphics/SVG/1.1/DTD/svg11.dtd"><svg t="1608388722347" class="icon" viewBox="0 0 1024 1024" version="1.1" xmlns="http://www.w3.org/2000/svg" p-id="2514" xmlns:xlink="http://www.w3.org/1999/xlink" width="200" height="200"><defs><style type="text/css"></style></defs><path d="M909.734 953.174H113.882c-24.454 0-44.35-19.894-44.35-44.35V112.974c0-24.454 19.896-44.348 44.35-44.348h795.852c24.453 0 44.349 19.894 44.349 44.348v795.852c-0.001 24.455-19.896 44.349-44.35 44.349zM113.882 109.557c-1.82 0-3.417 1.597-3.417 3.416v795.852c0 1.82 1.596 3.417 3.417 3.417h795.852c1.819 0 3.416-1.598 3.416-3.417V112.973c0-1.82-1.597-3.416-3.416-3.416H113.882z m144.67 380.876h506.512v40.932H258.553v-40.932z m223.58-253.255h40.932v506.51h-40.932v-506.51z" p-id="2515" fill="#292E31"></path></svg>