<?xml version="1.0" standalone="no"?><!DOCTYPE svg PUBLIC "-//W3C//DTD SVG 1.1//EN" "http://www.w3.org/Graphics/SVG/1.1/DTD/svg11.dtd"><svg t="1607584195775" class="icon" viewBox="0 0 1081 1024" version="1.1" xmlns="http://www.w3.org/2000/svg" p-id="30105" xmlns:xlink="http://www.w3.org/1999/xlink" width="211.1328125" height="200"><defs><style type="text/css"></style></defs><path d="M1038.84 330.286891a540.718175 540.718175 0 1 0-764.409902 681.027631 38.156371 38.156371 0 0 0 37.637021-66.381487A464.108661 464.108661 0 0 1 76.493923 549.304461h123.520653a38.156371 38.156371 0 1 0 0-76.312742h-118.708711A463.91788 463.91788 0 0 1 502.562802 77.956688v110.653477a38.156371 38.156371 0 1 0 76.312742 0V77.956688a464.023869 464.023869 0 0 1 421.267536 395.024432H887.083632a38.156371 38.156371 0 0 0 0 76.312742h117.860791a464.235849 464.235849 0 0 1-248.588758 402.761696 38.157431 38.157431 0 1 0 35.496024 67.557975 540.548592 540.548592 0 0 0 289.47967-478.862458 537.273503 537.273503 0 0 0-42.491359-210.464184z" p-id="30106" fill="#ffffff"></path><path d="M426.345451 767.569503L540.719173 881.943226l114.373723-114.373723-114.373723-438.427303-114.373722 438.427303z" p-id="30107" fill="#ffffff"></path></svg>