<?xml version="1.0" standalone="no"?><!DOCTYPE svg PUBLIC "-//W3C//DTD SVG 1.1//EN" "http://www.w3.org/Graphics/SVG/1.1/DTD/svg11.dtd"><svg t="1607584188746" class="icon" viewBox="0 0 1024 1024" version="1.1" xmlns="http://www.w3.org/2000/svg" p-id="29947" xmlns:xlink="http://www.w3.org/1999/xlink" width="200" height="200"><defs><style type="text/css"></style></defs><path d="M0 85.5C0 38.3 38.3 0 85.5 0h852.9c47.2 0 85.5 38.3 85.5 85.5v852.9c0 47.2-38.3 85.5-85.5 85.5H85.5C38.3 1024 0 985.7 0 938.5v-853z m85.3 853c0 0.1 853.1 0.2 853.1 0.2 0.1 0 0.2-853.1 0.2-853.1 0-0.1-853.1-0.2-853.1-0.2-0.1-0.1-0.2 853.1-0.2 853.1z m128-597.2c0-23.6 19.2-42.7 43-42.7h511.4c23.7 0 43 18.9 43 42.7 0 23.6-19.2 42.7-43 42.7H256.3c-23.7 0-43-18.9-43-42.7z m0 213.4c0-23.6 19.3-42.7 42.5-42.7h256.3c23.5 0 42.5 18.9 42.5 42.7 0 23.6-19.3 42.7-42.5 42.7H255.9c-23.5-0.1-42.6-19-42.6-42.7z" fill="#ffffff" p-id="29948"></path></svg>