<?xml version="1.0" standalone="no"?><!DOCTYPE svg PUBLIC "-//W3C//DTD SVG 1.1//EN" "http://www.w3.org/Graphics/SVG/1.1/DTD/svg11.dtd"><svg t="1607584174526" class="icon" viewBox="0 0 1024 1024" version="1.1" xmlns="http://www.w3.org/2000/svg" p-id="29790" xmlns:xlink="http://www.w3.org/1999/xlink" width="200" height="200"><defs><style type="text/css"></style></defs><path d="M837.665407 654.470577c28.565389 0 41.525359-11.590544 41.525359-40.084085 0-16.496336-17.456227-38.612635-29.429004-48.070726l-2.273276-2.273276c-39.813936-30.794119-81.368034-60.13403-129.141308-78.370529 60.761983-52.151701 99.436407-123.657857 99.436407-210.010715C817.783586 118.67878 690.460036 0 533.477569 0s-284.260034 118.67878-284.260034 275.661247c0 86.352859 38.680172 157.859015 99.413416 210.010715C154.714221 560.075036 16.726969 747.580036 16.60339 967.834862l0 0.09484c0.123579 28.447558 12.602166 49.660007 40.997993 49.660007 28.638674 0 45.206858-20.696579 47.987382-48.980323C127.39899 746.624456 241.631806 576.22219 533.50056 538.872646c92.771773-11.872189 200.20919 37.513358 267.016477 93.174122 18.141659 15.116851 25.006031 19.615983 33.11194 21.942426L837.665407 654.470577 837.665407 654.470577zM533.50056 464.942333C414.64216 464.942333 339.089516 375.436778 339.089516 275.661247 339.089516 215.54446 406.020381 87.919148 533.792263 87.919148c130.88147 0 197.576674 123.314423 197.576674 188.949148C731.368937 376.669692 647.430177 464.942333 533.50056 464.942333L533.50056 464.942333 533.50056 464.942333zM628.272585 786.873791c0 28.54096 23.148038 42.182051 51.686125 42.182051l275.746028 0c28.542397 0 51.691872-13.64109 51.691872-42.182051 0-28.592691-23.148038-48.076473-51.691872-48.076473L679.95871 738.797318C651.420623 738.797318 628.272585 758.279663 628.272585 786.873791L628.272585 786.873791 628.272585 786.873791zM955.703301 937.760661 679.95871 937.760661c-28.53665 0-51.686125 10.107598-51.686125 38.651433 0 28.58838 23.148038 47.587906 51.686125 47.587906l275.746028 0c28.542397 0 51.691872-19.023954 51.691872-47.587906C1007.395173 947.86826 984.247135 937.760661 955.703301 937.760661L955.703301 937.760661 955.703301 937.760661zM955.703301 937.760661" p-id="29791" fill="#ffffff"></path></svg>